<?xml version="1.0" standalone="no"?>
<!DOCTYPE svg PUBLIC "-//W3C//DTD SVG 20010904//EN"
 "http://www.w3.org/TR/2001/REC-SVG-20010904/DTD/svg10.dtd">
<svg version="1.0" xmlns="http://www.w3.org/2000/svg"
 width="1887.000000pt" height="1887.000000pt" viewBox="0 0 1887.000000 1887.000000"
 preserveAspectRatio="xMidYMid meet">
<metadata>
Created by potrace 1.11, written by Peter Selinger 2001-2013
</metadata>
<g transform="translate(0.000000,1887.000000) scale(0.100000,-0.100000)"
fill="#000000" stroke="none">
<path d="M10715 14791 c-3 -5 -507 -2373 -1120 -5263 -614 -2889 -1124 -5292
-1134 -5341 l-19 -87 1411 2 1411 3 448 2135 c246 1174 447 2138 447 2143 1 4
917 7 2036 7 1119 0 2035 2 2035 4 0 2 104 479 230 1061 127 582 230 1064 230
1071 0 12 -316 14 -2031 14 l-2031 0 5 23 c10 41 437 2065 437 2071 0 3 976 6
2169 6 2058 0 2170 1 2175 18 4 15 436 2031 452 2110 l7 32 -3576 0 c-2173 0
-3578 -4 -3582 -9z"/>
<path d="M7156 12667 c-242 -1156 -444 -2121 -449 -2144 l-9 -43 -2033 0
-2034 0 -16 -72 c-9 -40 -114 -523 -233 -1073 l-218 -1000 2033 -3 2033 -2 -5
-23 c-15 -65 -435 -2062 -435 -2069 0 -4 -976 -8 -2169 -8 -2058 0 -2170 -1
-2175 -17 -8 -27 -456 -2122 -456 -2133 0 -7 1212 -10 3579 -10 l3579 0 5 28
c30 145 2259 10641 2263 10655 5 16 -67 17 -1408 17 l-1413 0 -439 -2103z"/>
</g>
</svg>
